{"title":"Columbus Day.2008.DvDRip.XViD.Swe_Sub.avi","uid":5486379,"size":738489622,"categoryP":"video","categoryS":"movies","magnet":"?xt=urn:btih:9763418f3a9254c296d022deb158f623c53f1822&amp;dn=Columbus+Day.2008.DvDRip.XViD.Swe_Sub.avi&amp;tr=udp%3A%2F%2Ftracker.openbittorrent.com%3A80&amp;tr=udp%3A%2F%2Fopen.demonii.com%3A1337&amp;tr=udp%3A%2F%2Ftracker.coppersurfer.tk%3A6969&amp;tr=udp%3A%2F%2Fexodus.desync.com%3A6969","seeders":0,"leechers":1,"uploader":"Zen_Bud","files":-1,"time":1270742621,"description":"General\nComplete name                    : Columbus Day.avi\nFormat                           : AVI\nFile size                        : 704 MiB\nDuration                         : 1h 26mn\nOverall bit rate                 : 1 136 Kbps\n\nVideo\nID                               : 0\nFormat                           : MPEG-4 Visual\nCodec ID/Hint                    : XviD\nDuration                         : 1h 26mn\nBit rate                         : 995 Kbps\nWidth                            : 720 pixels\nHeight                           : 574 pixels\nDisplay aspect ratio             : 16:9\nFrame rate                       : 25.000 fps\nResolution                       : 8 bits\nColorimetry                      : 4:2:0\nScan type                        : Progressive\nBits/(Pixel*Frame)               : 0.096\nStream size                      : 617 MiB (88%)\nWriting library                  : XviD 1.1.2 (UTC 2006-11-01)\n\nAudio\nID                               : 1\nFormat                           : MPEG Audio\nFormat profile                   : Layer 3\nMode                             : Joint stereo\nCodec ID/Hint                    : MP3\nDuration                         : 1h 26mn\nBit rate mode                    : Constant\nBit rate                         : 128 Kbps\nChannel(s)                       : 2 channels\nSampling rate                    : 48.0 KHz\nStream size                      : 79.4 MiB (11%)\nInterleave, duration             : 24 ms (0.60 video frame)\n\n","torrent":{"xt":"urn:btih:9763418f3a9254c296d022deb158f623c53f1822","amp;dn":"Columbus+Day.2008.DvDRip.XViD.Swe_Sub.avi","amp;tr":["udp%3A%2F%2Ftracker.openbittorrent.com%3A80","udp%3A%2F%2Fopen.demonii.com%3A1337","udp%3A%2F%2Ftracker.coppersurfer.tk%3A6969","udp%3A%2F%2Fexodus.desync.com%3A6969"],"infoHash":"9763418f3a9254c296d022deb158f623c53f1822","infoHashBuffer":{"type":"Buffer","data":[151,99,65,143,58,146,84,194,150,208,34,222,177,88,246,35,197,63,24,34]},"announce":[],"urlList":[]}}